<svg class="logo-shukishoko" width="200" height="200" viewBox="0 0 200 200" fill="none" xmlns="http://www.w3.org/2000/svg">
<rect width="200" height="200" rx="30" fill="#9C27B0"/>
<path d="M20.24 89.68C20.24 79.5467 23.92 71.44 31.28 65.36C38.5333 59.3867 48.88 56.4 62.32 56.4C74.3733 56.4 85.1467 58.6933 94.64 63.28V85.84C89.2 83.4933 83.6 81.3067 77.84 79.28C71.9733 77.36 66.16 76.4 60.4 76.4C54.4267 76.4 50.2133 77.52 47.76 79.76C45.2 82.1067 43.92 85.04 43.92 88.56C43.92 91.44 44.9333 93.8933 46.96 95.92C48.88 97.9467 51.4933 99.8133 54.8 101.52C58.1067 103.333 61.8933 105.253 66.16 107.28C68.8267 108.56 71.7067 110.053 74.8 111.76C77.8933 113.573 80.88 115.76 83.76 118.32C86.5333 120.987 88.8267 124.187 90.64 127.92C92.4533 131.653 93.36 136.133 93.36 141.36C93.36 151.6 89.8933 159.547 82.96 165.2C76.0267 170.96 66.5867 173.84 54.64 173.84C48.6667 173.84 43.0133 173.147 37.68 171.76C32.24 170.373 26.5867 168.4 20.72 165.84L28.56 146.96C33.7867 149.093 38.48 150.747 42.64 151.92C46.8 153.093 51.0667 153.68 55.44 153.68C60.0267 153.68 63.5467 152.613 66 150.48C68.4533 148.347 69.68 145.573 69.68 142.16C69.68 138.107 67.8667 134.907 64.24 132.56C60.6133 130.213 55.2267 127.333 48.08 123.92C42.2133 121.147 37.2533 118.267 33.2 115.28C29.04 112.293 25.84 108.773 23.6 104.72C21.36 100.667 20.24 95.6533 20.24 89.68Z" fill="white"/>
<path d="M31.28 65.36L30.0086 63.8161L30.0062 63.8181L31.28 65.36ZM94.64 63.28H96.64V62.0251L95.5101 61.4792L94.64 63.28ZM94.64 85.84L93.8478 87.6764L96.64 88.8809V85.84H94.64ZM77.84 79.28L78.5038 77.3934L78.483 77.3861L78.4621 77.3792L77.84 79.28ZM47.76 79.76L46.4115 78.283L46.4085 78.2857L47.76 79.76ZM46.96 95.92L48.4119 94.5445L48.3933 94.5249L48.3742 94.5058L46.96 95.92ZM54.8 101.52L55.7617 99.7664L55.7396 99.7543L55.7173 99.7428L54.8 101.52ZM66.16 107.28L67.0255 105.477L67.0181 105.473L66.16 107.28ZM74.8 111.76L75.8114 110.035L75.789 110.021L75.7662 110.009L74.8 111.76ZM83.76 118.32L85.1462 116.878L85.118 116.851L85.0887 116.825L83.76 118.32ZM90.64 127.92L92.439 127.046L92.439 127.046L90.64 127.92ZM82.96 165.2L81.6961 163.65L81.689 163.656L81.682 163.662L82.96 165.2ZM37.68 171.76L38.1833 169.824L38.174 169.822L37.68 171.76ZM20.72 165.84L18.8729 165.073L18.1195 166.887L19.9201 167.673L20.72 165.84ZM28.56 146.96L29.3158 145.108L27.4753 144.357L26.7129 146.193L28.56 146.96ZM42.64 151.92L43.1829 149.995L43.1829 149.995L42.64 151.92ZM66 150.48L64.6876 148.971L64.6876 148.971L66 150.48ZM64.24 132.56L65.3265 130.881L65.3265 130.881L64.24 132.56ZM48.08 123.92L48.942 122.115L48.9348 122.112L48.08 123.92ZM33.2 115.28L34.3864 113.67L34.3764 113.663L34.3664 113.655L33.2 115.28ZM23.6 104.72L25.3505 103.753L25.3505 103.753L23.6 104.72ZM22.24 89.68C22.24 80.1012 25.6851 72.576 32.5538 66.9019L30.0062 63.8181C22.1549 70.304 18.24 78.9921 18.24 89.68H22.24ZM32.5514 66.9039C39.3203 61.3295 49.1484 58.4 62.32 58.4V54.4C48.6116 54.4 37.7464 57.4438 30.0086 63.8161L32.5514 66.9039ZM62.32 58.4C74.1153 58.4 84.5843 60.6428 93.7699 65.0808L95.5101 61.4792C85.709 56.7438 74.6314 54.4 62.32 54.4V58.4ZM92.64 63.28V85.84H96.64V63.28H92.64ZM95.4322 84.0036C89.9487 81.6382 84.3058 79.4348 78.5038 77.3934L77.1762 81.1666C82.8942 83.1785 88.4513 85.3485 93.8478 87.6764L95.4322 84.0036ZM78.4621 77.3792C72.409 75.3982 66.3859 74.4 60.4 74.4V78.4C65.9341 78.4 71.5377 79.3218 77.2179 81.1808L78.4621 77.3792ZM60.4 74.4C54.2868 74.4 49.4325 75.5247 46.4115 78.283L49.1085 81.237C50.9941 79.5153 54.5665 78.4 60.4 78.4V74.4ZM46.4085 78.2857C43.4289 81.017 41.92 84.4881 41.92 88.56H45.92C45.92 85.5919 46.9711 83.1963 49.1114 81.2343L46.4085 78.2857ZM41.92 88.56C41.92 91.9675 43.142 94.9304 45.5458 97.3342L48.3742 94.5058C46.7247 92.8562 45.92 90.9125 45.92 88.56H41.92ZM45.5081 97.2955C47.6243 99.5292 50.4388 101.52 53.8827 103.297L55.7173 99.7428C52.5478 98.1069 50.1357 96.3641 48.4119 94.5445L45.5081 97.2955ZM53.8383 103.274C57.1862 105.11 61.0085 107.047 65.3019 109.087L67.0181 105.473C62.7782 103.459 59.0271 101.557 55.7617 99.7664L53.8383 103.274ZM65.2945 109.083C67.9214 110.344 70.7675 111.819 73.8338 113.511L75.7662 110.009C72.6459 108.287 69.7319 106.776 67.0255 105.477L65.2945 109.083ZM73.7886 113.485C76.7608 115.228 79.642 117.335 82.4313 119.815L85.0887 116.825C82.118 114.185 79.0259 111.919 75.8114 110.035L73.7886 113.485ZM82.3738 119.762C84.9642 122.252 87.1225 125.256 88.841 128.794L92.439 127.046C90.5308 123.117 88.1025 119.721 85.1462 116.878L82.3738 119.762ZM88.841 128.794C90.4923 132.194 91.36 136.36 91.36 141.36H95.36C95.36 135.907 94.4144 131.113 92.439 127.046L88.841 128.794ZM91.36 141.36C91.36 151.097 88.0929 158.434 81.6961 163.65L84.2239 166.75C91.6938 160.659 95.36 152.103 95.36 141.36H91.36ZM81.682 163.662C75.2101 169.038 66.2729 171.84 54.64 171.84V175.84C66.9004 175.84 76.8432 172.882 84.238 166.738L81.682 163.662ZM54.64 171.84C48.8223 171.84 43.3391 171.165 38.1833 169.824L37.1767 173.696C42.6875 175.128 48.511 175.84 54.64 175.84V171.84ZM38.174 169.822C32.852 168.465 27.301 166.53 21.5199 164.007L19.9201 167.673C25.8723 170.27 31.628 172.281 37.186 173.698L38.174 169.822ZM22.5671 166.607L30.4071 147.727L26.7129 146.193L18.8729 165.073L22.5671 166.607ZM27.8042 148.812C33.0807 150.965 37.8468 152.646 42.0971 153.845L43.1829 149.995C39.1131 148.847 34.4927 147.221 29.3158 145.108L27.8042 148.812ZM42.0971 153.845C46.4358 155.069 50.8853 155.68 55.44 155.68V151.68C51.248 151.68 47.1642 151.118 43.1829 149.995L42.0971 153.845ZM55.44 155.68C60.3125 155.68 64.3701 154.548 67.3124 151.989L64.6876 148.971C62.7233 150.679 59.7408 151.68 55.44 151.68V155.68ZM67.3124 151.989C70.2267 149.455 71.68 146.119 71.68 142.16H67.68C67.68 145.027 66.6799 147.238 64.6876 148.971L67.3124 151.989ZM71.68 142.16C71.68 137.377 69.4779 133.567 65.3265 130.881L63.1535 134.239C66.2554 136.246 67.68 138.837 67.68 142.16H71.68ZM65.3265 130.881C61.5915 128.464 56.1137 125.541 48.942 122.115L47.218 125.725C54.3397 129.126 59.6352 131.963 63.1535 134.239L65.3265 130.881ZM48.9348 122.112C43.1532 119.379 38.3111 116.562 34.3864 113.67L32.0136 116.89C36.1956 119.972 41.2734 122.915 47.2252 125.728L48.9348 122.112ZM34.3664 113.655C30.4217 110.823 27.4324 107.52 25.3505 103.753L21.8495 105.687C24.2476 110.027 27.6583 113.763 32.0336 116.905L34.3664 113.655ZM25.3505 103.753C23.3149 100.069 22.24 95.4105 22.24 89.68H18.24C18.24 95.8962 19.4051 101.264 21.8495 105.687L25.3505 103.753Z" fill="#9C27B0"/>
<path d="M94.76 109.32C94.76 119.453 91.08 127.56 83.72 133.64C76.4667 139.613 66.12 142.6 52.68 142.6C40.6267 142.6 29.8533 140.307 20.36 135.72V113.16C25.8 115.507 31.4 117.693 37.16 119.72C43.0267 121.64 48.84 122.6 54.6 122.6C60.5733 122.6 64.7867 121.48 67.24 119.24C69.8 116.893 71.08 113.96 71.08 110.44C71.08 107.56 70.0667 105.107 68.04 103.08C66.12 101.053 63.5067 99.1867 60.2 97.48C56.8933 95.6667 53.1067 93.7467 48.84 91.72C46.1733 90.44 43.2933 88.9467 40.2 87.24C37.1067 85.4267 34.12 83.24 31.24 80.68C28.4667 78.0133 26.1733 74.8133 24.36 71.08C22.5467 67.3467 21.64 62.8667 21.64 57.64C21.64 47.4 25.1067 39.4533 32.04 33.8C38.9733 28.04 48.4133 25.16 60.36 25.16C66.3333 25.16 71.9867 25.8533 77.32 27.24C82.76 28.6267 88.4133 30.6 94.28 33.16L86.44 52.04C81.2133 49.9067 76.52 48.2533 72.36 47.08C68.2 45.9067 63.9333 45.32 59.56 45.32C54.9733 45.32 51.4533 46.3867 49 48.52C46.5467 50.6533 45.32 53.4267 45.32 56.84C45.32 60.8933 47.1333 64.0933 50.76 66.44C54.3867 68.7867 59.7733 71.6667 66.92 75.08C72.7867 77.8533 77.7467 80.7333 81.8 83.72C85.96 86.7067 89.16 90.2267 91.4 94.28C93.64 98.3333 94.76 103.347 94.76 109.32Z" fill="white"/>
<path d="M83.72 133.64L84.9914 135.184L84.9938 135.182L83.72 133.64ZM20.36 135.72H18.36V136.975L19.4899 137.521L20.36 135.72ZM20.36 113.16L21.1522 111.324L18.36 110.119V113.16H20.36ZM37.16 119.72L36.4962 121.607L36.517 121.614L36.5379 121.621L37.16 119.72ZM67.24 119.24L68.5885 120.717L68.5915 120.714L67.24 119.24ZM68.04 103.08L66.5881 104.455L66.6067 104.475L66.6258 104.494L68.04 103.08ZM60.2 97.48L59.2383 99.2336L59.2604 99.2457L59.2827 99.2572L60.2 97.48ZM48.84 91.72L47.9745 93.5231L47.9819 93.5266L48.84 91.72ZM40.2 87.24L39.1886 88.9654L39.211 88.9786L39.2338 88.9912L40.2 87.24ZM31.24 80.68L29.8538 82.1217L29.882 82.1488L29.9113 82.1748L31.24 80.68ZM24.36 71.08L22.561 71.9538L22.561 71.9538L24.36 71.08ZM32.04 33.8L33.3039 35.35L33.311 35.3442L33.318 35.3384L32.04 33.8ZM77.32 27.24L76.8167 29.1757L76.826 29.178L77.32 27.24ZM94.28 33.16L96.1271 33.927L96.8805 32.1126L95.0799 31.3269L94.28 33.16ZM86.44 52.04L85.6842 53.8917L87.5247 54.6429L88.2871 52.807L86.44 52.04ZM72.36 47.08L71.8171 49.0049L71.8171 49.0049L72.36 47.08ZM49 48.52L50.3124 50.0292L50.3124 50.0292L49 48.52ZM50.76 66.44L49.6735 68.1191L49.6735 68.1191L50.76 66.44ZM66.92 75.08L66.058 76.8847L66.0652 76.8881L66.92 75.08ZM81.8 83.72L80.6136 85.3301L80.6236 85.3374L80.6336 85.3446L81.8 83.72ZM91.4 94.28L89.6495 95.2474L89.6495 95.2474L91.4 94.28ZM92.76 109.32C92.76 118.899 89.3149 126.424 82.4462 132.098L84.9938 135.182C92.8451 128.696 96.76 120.008 96.76 109.32H92.76ZM82.4486 132.096C75.6797 137.67 65.8516 140.6 52.68 140.6V144.6C66.3884 144.6 77.2536 141.556 84.9914 135.184L82.4486 132.096ZM52.68 140.6C40.8847 140.6 30.4157 138.357 21.2301 133.919L19.4899 137.521C29.291 142.256 40.3686 144.6 52.68 144.6V140.6ZM22.36 135.72V113.16H18.36V135.72H22.36ZM19.5678 114.996C25.0513 117.362 30.6942 119.565 36.4962 121.607L37.8238 117.833C32.1058 115.821 26.5487 113.651 21.1522 111.324L19.5678 114.996ZM36.5379 121.621C42.591 123.602 48.6141 124.6 54.6 124.6V120.6C49.0659 120.6 43.4623 119.678 37.7821 117.819L36.5379 121.621ZM54.6 124.6C60.7132 124.6 65.5675 123.475 68.5885 120.717L65.8915 117.763C64.0059 119.485 60.4335 120.6 54.6 120.6V124.6ZM68.5915 120.714C71.5711 117.983 73.08 114.512 73.08 110.44H69.08C69.08 113.408 68.0289 115.804 65.8886 117.766L68.5915 120.714ZM73.08 110.44C73.08 107.032 71.858 104.07 69.4542 101.666L66.6258 104.494C68.2753 106.144 69.08 108.088 69.08 110.44H73.08ZM69.4919 101.705C67.3757 99.4708 64.5612 97.4802 61.1173 95.7028L59.2827 99.2572C62.4522 100.893 64.8643 102.636 66.5881 104.455L69.4919 101.705ZM61.1617 95.7264C57.8138 93.8904 53.9915 91.9528 49.6981 89.9134L47.9819 93.5266C52.2218 95.5405 55.9729 97.4429 59.2383 99.2336L61.1617 95.7264ZM49.7055 89.9169C47.0786 88.6561 44.2325 87.1806 41.1662 85.4888L39.2338 88.9912C42.3541 90.7127 45.2681 92.2239 47.9745 93.523L49.7055 89.9169ZM41.2114 85.5146C38.2392 83.7723 35.358 81.6645 32.5687 79.1852L29.9113 82.1748C32.882 84.8155 35.9741 87.0811 39.1886 88.9654L41.2114 85.5146ZM32.6262 79.2383C30.0358 76.7476 27.8775 73.7441 26.159 70.2062L22.561 71.9538C24.4692 75.8825 26.8975 79.2791 29.8538 82.1217L32.6262 79.2383ZM26.159 70.2062C24.5077 66.8064 23.64 62.6403 23.64 57.64H19.64C19.64 63.093 20.5856 67.8869 22.561 71.9538L26.159 70.2062ZM23.64 57.64C23.64 47.9033 26.9071 40.5658 33.3039 35.35L30.7761 32.25C23.3062 38.3408 19.64 46.8966 19.64 57.64H23.64ZM33.318 35.3384C39.7899 29.9617 48.7271 27.16 60.36 27.16V23.16C48.0996 23.16 38.1568 26.1182 30.762 32.2616L33.318 35.3384ZM60.36 27.16C66.1777 27.16 71.6609 27.8351 76.8167 29.1756L77.8233 25.3044C72.3125 23.8715 66.489 23.16 60.36 23.16V27.16ZM76.826 29.178C82.148 30.5346 87.699 32.4704 93.4801 34.9931L95.0799 31.3269C89.1277 28.7296 83.372 26.7187 77.814 25.302L76.826 29.178ZM92.4329 32.393L84.5929 51.273L88.2871 52.807L96.1271 33.927L92.4329 32.393ZM87.1958 50.1883C81.9193 48.0346 77.1532 46.3539 72.9029 45.1551L71.8171 49.0049C75.8869 50.1528 80.5073 51.7787 85.6842 53.8917L87.1958 50.1883ZM72.9029 45.1551C68.5642 43.9313 64.1147 43.32 59.56 43.32V47.32C63.752 47.32 67.8358 47.882 71.8171 49.0049L72.9029 45.1551ZM59.56 43.32C54.6875 43.32 50.6299 44.4523 47.6876 47.0108L50.3124 50.0292C52.2767 48.3211 55.2592 47.32 59.56 47.32V43.32ZM47.6876 47.0108C44.7733 49.545 43.32 52.8807 43.32 56.84H47.32C47.32 53.9727 48.3201 51.7616 50.3124 50.0292L47.6876 47.0108ZM43.32 56.84C43.32 61.6234 45.5221 65.4329 49.6735 68.1191L51.8465 64.7609C48.7446 62.7538 47.32 60.1632 47.32 56.84H43.32ZM49.6735 68.1191C53.4085 70.5359 58.8863 73.4594 66.058 76.8847L67.782 73.2753C60.6603 69.8739 55.3648 67.0374 51.8465 64.7609L49.6735 68.1191ZM66.0652 76.8881C71.8468 79.6212 76.6889 82.4382 80.6136 85.3301L82.9864 82.1099C78.8044 79.0284 73.7266 76.0854 67.7748 73.2719L66.0652 76.8881ZM80.6336 85.3446C84.5783 88.1768 87.5676 91.4801 89.6495 95.2474L93.1505 93.3126C90.7524 88.9732 87.3417 85.2366 82.9664 82.0954L80.6336 85.3446ZM89.6495 95.2474C91.6851 98.9309 92.76 103.589 92.76 109.32H96.76C96.76 103.104 95.5949 97.7358 93.1505 93.3126L89.6495 95.2474Z" fill="#9C27B0"/>
<mask id="mask0" mask-type="alpha" maskUnits="userSpaceOnUse" x="11" y="47" width="90" height="57">
<path d="M79.5691 97.8997L42.4209 103.643C25.9039 106.196 11 93.4191 11 76.7058C11 62.0691 22.5602 50.0454 37.1856 49.4702L74.746 47.9931C88.6669 47.4457 100.372 58.3358 100.83 72.2599C101.246 84.9532 92.1202 95.9593 79.5691 97.8997Z" fill="#C4C4C4"/>
</mask>
<g mask="url(#mask0)">
<path d="M20.24 89.68C20.24 79.5467 23.92 71.44 31.28 65.36C38.5333 59.3867 48.88 56.4 62.32 56.4C74.3733 56.4 85.1467 58.6933 94.64 63.28V85.84C89.2 83.4933 83.6 81.3067 77.84 79.28C71.9733 77.36 66.16 76.4 60.4 76.4C54.4267 76.4 50.2133 77.52 47.76 79.76C45.2 82.1067 43.92 85.04 43.92 88.56C43.92 91.44 44.9333 93.8933 46.96 95.92C48.88 97.9467 51.4933 99.8133 54.8 101.52C58.1067 103.333 61.8933 105.253 66.16 107.28C68.8267 108.56 71.7067 110.053 74.8 111.76C77.8933 113.573 80.88 115.76 83.76 118.32C86.5333 120.987 88.8267 124.187 90.64 127.92C92.4533 131.653 93.36 136.133 93.36 141.36C93.36 151.6 89.8933 159.547 82.96 165.2C76.0267 170.96 66.5867 173.84 54.64 173.84C48.6667 173.84 43.0133 173.147 37.68 171.76C32.24 170.373 26.5867 168.4 20.72 165.84L28.56 146.96C33.7867 149.093 38.48 150.747 42.64 151.92C46.8 153.093 51.0667 153.68 55.44 153.68C60.0267 153.68 63.5467 152.613 66 150.48C68.4533 148.347 69.68 145.573 69.68 142.16C69.68 138.107 67.8667 134.907 64.24 132.56C60.6133 130.213 55.2267 127.333 48.08 123.92C42.2133 121.147 37.2533 118.267 33.2 115.28C29.04 112.293 25.84 108.773 23.6 104.72C21.36 100.667 20.24 95.6533 20.24 89.68Z" fill="white"/>
<path d="M31.28 65.36L30.0086 63.8161L30.0062 63.8181L31.28 65.36ZM94.64 63.28H96.64V62.0251L95.5101 61.4792L94.64 63.28ZM94.64 85.84L93.8478 87.6764L96.64 88.8809V85.84H94.64ZM77.84 79.28L78.5038 77.3934L78.483 77.3861L78.4621 77.3792L77.84 79.28ZM47.76 79.76L46.4115 78.283L46.4085 78.2857L47.76 79.76ZM46.96 95.92L48.4119 94.5445L48.3933 94.5249L48.3742 94.5058L46.96 95.92ZM54.8 101.52L55.7617 99.7664L55.7396 99.7543L55.7173 99.7428L54.8 101.52ZM66.16 107.28L67.0255 105.477L67.0181 105.473L66.16 107.28ZM74.8 111.76L75.8114 110.035L75.789 110.021L75.7662 110.009L74.8 111.76ZM83.76 118.32L85.1462 116.878L85.118 116.851L85.0887 116.825L83.76 118.32ZM90.64 127.92L92.439 127.046L92.439 127.046L90.64 127.92ZM82.96 165.2L81.6961 163.65L81.689 163.656L81.682 163.662L82.96 165.2ZM37.68 171.76L38.1833 169.824L38.174 169.822L37.68 171.76ZM20.72 165.84L18.8729 165.073L18.1195 166.887L19.9201 167.673L20.72 165.84ZM28.56 146.96L29.3158 145.108L27.4753 144.357L26.7129 146.193L28.56 146.96ZM42.64 151.92L43.1829 149.995L43.1829 149.995L42.64 151.92ZM66 150.48L64.6876 148.971L64.6876 148.971L66 150.48ZM64.24 132.56L65.3265 130.881L65.3265 130.881L64.24 132.56ZM48.08 123.92L48.942 122.115L48.9348 122.112L48.08 123.92ZM33.2 115.28L34.3864 113.67L34.3764 113.663L34.3664 113.655L33.2 115.28ZM23.6 104.72L25.3505 103.753L25.3505 103.753L23.6 104.72ZM22.24 89.68C22.24 80.1012 25.6851 72.576 32.5538 66.9019L30.0062 63.8181C22.1549 70.304 18.24 78.9921 18.24 89.68H22.24ZM32.5514 66.9039C39.3203 61.3295 49.1484 58.4 62.32 58.4V54.4C48.6116 54.4 37.7464 57.4438 30.0086 63.8161L32.5514 66.9039ZM62.32 58.4C74.1153 58.4 84.5843 60.6428 93.7699 65.0808L95.5101 61.4792C85.709 56.7438 74.6314 54.4 62.32 54.4V58.4ZM92.64 63.28V85.84H96.64V63.28H92.64ZM95.4322 84.0036C89.9487 81.6382 84.3058 79.4348 78.5038 77.3934L77.1762 81.1666C82.8942 83.1785 88.4513 85.3485 93.8478 87.6764L95.4322 84.0036ZM78.4621 77.3792C72.409 75.3982 66.3859 74.4 60.4 74.4V78.4C65.9341 78.4 71.5377 79.3218 77.2179 81.1808L78.4621 77.3792ZM60.4 74.4C54.2868 74.4 49.4325 75.5247 46.4115 78.283L49.1085 81.237C50.9941 79.5153 54.5665 78.4 60.4 78.4V74.4ZM46.4085 78.2857C43.4289 81.017 41.92 84.4881 41.92 88.56H45.92C45.92 85.5919 46.9711 83.1963 49.1114 81.2343L46.4085 78.2857ZM41.92 88.56C41.92 91.9675 43.142 94.9304 45.5458 97.3342L48.3742 94.5058C46.7247 92.8562 45.92 90.9125 45.92 88.56H41.92ZM45.5081 97.2955C47.6243 99.5292 50.4388 101.52 53.8827 103.297L55.7173 99.7428C52.5478 98.1069 50.1357 96.3641 48.4119 94.5445L45.5081 97.2955ZM53.8383 103.274C57.1862 105.11 61.0085 107.047 65.3019 109.087L67.0181 105.473C62.7782 103.459 59.0271 101.557 55.7617 99.7664L53.8383 103.274ZM65.2945 109.083C67.9214 110.344 70.7675 111.819 73.8338 113.511L75.7662 110.009C72.6459 108.287 69.7319 106.776 67.0255 105.477L65.2945 109.083ZM73.7886 113.485C76.7608 115.228 79.642 117.335 82.4313 119.815L85.0887 116.825C82.118 114.185 79.0259 111.919 75.8114 110.035L73.7886 113.485ZM82.3738 119.762C84.9642 122.252 87.1225 125.256 88.841 128.794L92.439 127.046C90.5308 123.117 88.1025 119.721 85.1462 116.878L82.3738 119.762ZM88.841 128.794C90.4923 132.194 91.36 136.36 91.36 141.36H95.36C95.36 135.907 94.4144 131.113 92.439 127.046L88.841 128.794ZM91.36 141.36C91.36 151.097 88.0929 158.434 81.6961 163.65L84.2239 166.75C91.6938 160.659 95.36 152.103 95.36 141.36H91.36ZM81.682 163.662C75.2101 169.038 66.2729 171.84 54.64 171.84V175.84C66.9004 175.84 76.8432 172.882 84.238 166.738L81.682 163.662ZM54.64 171.84C48.8223 171.84 43.3391 171.165 38.1833 169.824L37.1767 173.696C42.6875 175.128 48.511 175.84 54.64 175.84V171.84ZM38.174 169.822C32.852 168.465 27.301 166.53 21.5199 164.007L19.9201 167.673C25.8723 170.27 31.628 172.281 37.186 173.698L38.174 169.822ZM22.5671 166.607L30.4071 147.727L26.7129 146.193L18.8729 165.073L22.5671 166.607ZM27.8042 148.812C33.0807 150.965 37.8468 152.646 42.0971 153.845L43.1829 149.995C39.1131 148.847 34.4927 147.221 29.3158 145.108L27.8042 148.812ZM42.0971 153.845C46.4358 155.069 50.8853 155.68 55.44 155.68V151.68C51.248 151.68 47.1642 151.118 43.1829 149.995L42.0971 153.845ZM55.44 155.68C60.3125 155.68 64.3701 154.548 67.3124 151.989L64.6876 148.971C62.7233 150.679 59.7408 151.68 55.44 151.68V155.68ZM67.3124 151.989C70.2267 149.455 71.68 146.119 71.68 142.16H67.68C67.68 145.027 66.6799 147.238 64.6876 148.971L67.3124 151.989ZM71.68 142.16C71.68 137.377 69.4779 133.567 65.3265 130.881L63.1535 134.239C66.2554 136.246 67.68 138.837 67.68 142.16H71.68ZM65.3265 130.881C61.5915 128.464 56.1137 125.541 48.942 122.115L47.218 125.725C54.3397 129.126 59.6352 131.963 63.1535 134.239L65.3265 130.881ZM48.9348 122.112C43.1532 119.379 38.3111 116.562 34.3864 113.67L32.0136 116.89C36.1956 119.972 41.2734 122.915 47.2252 125.728L48.9348 122.112ZM34.3664 113.655C30.4217 110.823 27.4324 107.52 25.3505 103.753L21.8495 105.687C24.2476 110.027 27.6583 113.763 32.0336 116.905L34.3664 113.655ZM25.3505 103.753C23.3149 100.069 22.24 95.4105 22.24 89.68H18.24C18.24 95.8962 19.4051 101.264 21.8495 105.687L25.3505 103.753Z" fill="#9C27B0"/>
</g>
<path d="M168.46 63.046C169.02 63.046 169.51 63.242 169.93 63.634C170.378 63.998 170.602 64.586 170.602 65.398C170.602 66.182 170.378 66.77 169.93 67.162C169.51 67.554 169.02 67.75 168.46 67.75C167.844 67.75 167.326 67.554 166.906 67.162C166.486 66.77 166.276 66.182 166.276 65.398C166.276 64.586 166.486 63.998 166.906 63.634C167.326 63.242 167.844 63.046 168.46 63.046ZM170.266 71.488V94H166.57V71.488H170.266Z" fill="white"/>
<path d="M150.224 78.754C150.224 79.202 150.196 79.79 150.14 80.518C150.112 81.246 150.084 81.876 150.056 82.408H150.224C150.392 82.184 150.644 81.862 150.98 81.442C151.316 81.022 151.652 80.602 151.988 80.182C152.352 79.734 152.66 79.37 152.912 79.09L160.094 71.488H164.42L155.306 81.106L165.05 94H160.598L152.786 83.5L150.224 85.726V94H146.57V62.08H150.224V78.754Z" fill="white"/>
<path d="M144.386 71.488V94H141.362L140.816 91.018H140.648C139.92 92.194 138.912 93.062 137.624 93.622C136.336 94.154 134.964 94.42 133.508 94.42C130.792 94.42 128.748 93.776 127.376 92.488C126.004 91.172 125.318 89.086 125.318 86.23V71.488H129.056V85.978C129.056 89.562 130.722 91.354 134.054 91.354C136.546 91.354 138.268 90.654 139.22 89.254C140.2 87.854 140.69 85.838 140.69 83.206V71.488H144.386Z" fill="white"/>
<path d="M107.266 71.446C107.266 72.566 107.196 73.616 107.056 74.596H107.308C108.036 73.448 109.016 72.58 110.248 71.992C111.508 71.404 112.866 71.11 114.322 71.11C117.066 71.11 119.124 71.768 120.496 73.084C121.868 74.372 122.554 76.458 122.554 79.342V94H118.9V79.594C118.9 75.982 117.22 74.176 113.86 74.176C111.34 74.176 109.604 74.89 108.652 76.318C107.728 77.718 107.266 79.734 107.266 82.366V94H103.57V62.08H107.266V71.446Z" fill="white"/>
<path d="M183.142 128.702C183.142 132.426 182.19 135.31 180.286 137.354C178.41 139.398 175.862 140.42 172.642 140.42C170.654 140.42 168.876 139.972 167.308 139.076C165.768 138.152 164.55 136.822 163.654 135.086C162.758 133.322 162.31 131.194 162.31 128.702C162.31 124.978 163.248 122.108 165.124 120.092C167 118.076 169.548 117.068 172.768 117.068C174.812 117.068 176.604 117.53 178.144 118.454C179.712 119.35 180.93 120.666 181.798 122.402C182.694 124.11 183.142 126.21 183.142 128.702ZM166.132 128.702C166.132 131.362 166.65 133.476 167.686 135.044C168.75 136.584 170.43 137.354 172.726 137.354C174.994 137.354 176.66 136.584 177.724 135.044C178.788 133.476 179.32 131.362 179.32 128.702C179.32 126.042 178.788 123.956 177.724 122.444C176.66 120.932 174.98 120.176 172.684 120.176C170.388 120.176 168.722 120.932 167.686 122.444C166.65 123.956 166.132 126.042 166.132 128.702Z" fill="white"/>
<path d="M150.224 124.754C150.224 125.202 150.196 125.79 150.14 126.518C150.112 127.246 150.084 127.876 150.056 128.408H150.224C150.392 128.184 150.644 127.862 150.98 127.442C151.316 127.022 151.652 126.602 151.988 126.182C152.352 125.734 152.66 125.37 152.912 125.09L160.094 117.488H164.42L155.306 127.106L165.05 140H160.598L152.786 129.5L150.224 131.726V140H146.57V108.08H150.224V124.754Z" fill="white"/>
<path d="M145.142 128.702C145.142 132.426 144.19 135.31 142.286 137.354C140.41 139.398 137.862 140.42 134.642 140.42C132.654 140.42 130.876 139.972 129.308 139.076C127.768 138.152 126.55 136.822 125.654 135.086C124.758 133.322 124.31 131.194 124.31 128.702C124.31 124.978 125.248 122.108 127.124 120.092C129 118.076 131.548 117.068 134.768 117.068C136.812 117.068 138.604 117.53 140.144 118.454C141.712 119.35 142.93 120.666 143.798 122.402C144.694 124.11 145.142 126.21 145.142 128.702ZM128.132 128.702C128.132 131.362 128.65 133.476 129.686 135.044C130.75 136.584 132.43 137.354 134.726 137.354C136.994 137.354 138.66 136.584 139.724 135.044C140.788 133.476 141.32 131.362 141.32 128.702C141.32 126.042 140.788 123.956 139.724 122.444C138.66 120.932 136.98 120.176 134.684 120.176C132.388 120.176 130.722 120.932 129.686 122.444C128.65 123.956 128.132 126.042 128.132 128.702Z" fill="white"/>
<path d="M107.266 117.446C107.266 118.566 107.196 119.616 107.056 120.596H107.308C108.036 119.448 109.016 118.58 110.248 117.992C111.508 117.404 112.866 117.11 114.322 117.11C117.066 117.11 119.124 117.768 120.496 119.084C121.868 120.372 122.554 122.458 122.554 125.342V140H118.9V125.594C118.9 121.982 117.22 120.176 113.86 120.176C111.34 120.176 109.604 120.89 108.652 122.318C107.728 123.718 107.266 125.734 107.266 128.366V140H103.57V108.08H107.266V117.446Z" fill="white"/>
</svg>
