<svg class="logo-shukishoko" width="220" height="220" viewBox="0 0 220 220" fill="none" xmlns="http://www.w3.org/2000/svg">
<rect width="220" height="220" rx="110" fill="#9C27B0"/>
<path d="M36.24 99.68C36.24 89.5467 39.92 81.44 47.28 75.36C54.5333 69.3867 64.88 66.4 78.32 66.4C90.3733 66.4 101.147 68.6933 110.64 73.28V95.84C105.2 93.4933 99.6 91.3067 93.84 89.28C87.9733 87.36 82.16 86.4 76.4 86.4C70.4267 86.4 66.2133 87.52 63.76 89.76C61.2 92.1067 59.92 95.04 59.92 98.56C59.92 101.44 60.9333 103.893 62.96 105.92C64.88 107.947 67.4933 109.813 70.8 111.52C74.1067 113.333 77.8933 115.253 82.16 117.28C84.8267 118.56 87.7067 120.053 90.8 121.76C93.8933 123.573 96.88 125.76 99.76 128.32C102.533 130.987 104.827 134.187 106.64 137.92C108.453 141.653 109.36 146.133 109.36 151.36C109.36 161.6 105.893 169.547 98.96 175.2C92.0267 180.96 82.5867 183.84 70.64 183.84C64.6667 183.84 59.0133 183.147 53.68 181.76C48.24 180.373 42.5867 178.4 36.72 175.84L44.56 156.96C49.7867 159.093 54.48 160.747 58.64 161.92C62.8 163.093 67.0667 163.68 71.44 163.68C76.0267 163.68 79.5467 162.613 82 160.48C84.4533 158.347 85.68 155.573 85.68 152.16C85.68 148.107 83.8667 144.907 80.24 142.56C76.6133 140.213 71.2267 137.333 64.08 133.92C58.2133 131.147 53.2533 128.267 49.2 125.28C45.04 122.293 41.84 118.773 39.6 114.72C37.36 110.667 36.24 105.653 36.24 99.68Z" fill="white"/>
<path d="M47.28 75.36L46.0086 73.8161L46.0062 73.8181L47.28 75.36ZM110.64 73.28H112.64V72.0251L111.51 71.4792L110.64 73.28ZM110.64 95.84L109.848 97.6764L112.64 98.8809V95.84H110.64ZM93.84 89.28L94.5038 87.3934L94.483 87.3861L94.4621 87.3792L93.84 89.28ZM63.76 89.76L62.4114 88.283L62.4085 88.2857L63.76 89.76ZM62.96 105.92L64.4119 104.545L64.3933 104.525L64.3742 104.506L62.96 105.92ZM70.8 111.52L71.7617 109.766L71.7396 109.754L71.7173 109.743L70.8 111.52ZM82.16 117.28L83.0255 115.477L83.0181 115.473L82.16 117.28ZM90.8 121.76L91.8114 120.035L91.789 120.021L91.7661 120.009L90.8 121.76ZM99.76 128.32L101.146 126.878L101.118 126.851L101.089 126.825L99.76 128.32ZM106.64 137.92L108.439 137.046H108.439L106.64 137.92ZM98.96 175.2L97.6961 173.65L97.689 173.656L97.682 173.662L98.96 175.2ZM53.68 181.76L54.1833 179.824L54.174 179.822L53.68 181.76ZM36.72 175.84L34.8729 175.073L34.1195 176.887L35.9201 177.673L36.72 175.84ZM44.56 156.96L45.3158 155.108L43.4753 154.357L42.7129 156.193L44.56 156.96ZM58.64 161.92L59.1829 159.995L59.1829 159.995L58.64 161.92ZM82 160.48L80.6876 158.971V158.971L82 160.48ZM80.24 142.56L81.3265 140.881L80.24 142.56ZM64.08 133.92L64.942 132.115L64.9347 132.112L64.08 133.92ZM49.2 125.28L50.3864 123.67L50.3764 123.663L50.3664 123.655L49.2 125.28ZM39.6 114.72L41.3505 113.753L39.6 114.72ZM38.24 99.68C38.24 90.1012 41.6851 82.576 48.5537 76.9019L46.0062 73.8181C38.1549 80.304 34.24 88.9921 34.24 99.68H38.24ZM48.5514 76.9039C55.3203 71.3295 65.1484 68.4 78.32 68.4V64.4C64.6116 64.4 53.7464 67.4438 46.0086 73.8161L48.5514 76.9039ZM78.32 68.4C90.1152 68.4 100.584 70.6428 109.77 75.0808L111.51 71.4792C101.709 66.7438 90.6314 64.4 78.32 64.4V68.4ZM108.64 73.28V95.84H112.64V73.28H108.64ZM111.432 94.0036C105.949 91.6382 100.306 89.4348 94.5038 87.3934L93.1762 91.1666C98.8941 93.1785 104.451 95.3485 109.848 97.6764L111.432 94.0036ZM94.4621 87.3792C88.409 85.3982 82.3859 84.4 76.4 84.4V88.4C81.9341 88.4 87.5377 89.3218 93.2179 91.1808L94.4621 87.3792ZM76.4 84.4C70.2868 84.4 65.4325 85.5247 62.4114 88.283L65.1085 91.237C66.9941 89.5153 70.5665 88.4 76.4 88.4V84.4ZM62.4085 88.2857C59.4289 91.017 57.92 94.4881 57.92 98.56H61.92C61.92 95.5919 62.9711 93.1963 65.1114 91.2343L62.4085 88.2857ZM57.92 98.56C57.92 101.968 59.142 104.93 61.5458 107.334L64.3742 104.506C62.7246 102.856 61.92 100.912 61.92 98.56H57.92ZM61.5081 107.295C63.6243 109.529 66.4388 111.52 69.8827 113.297L71.7173 109.743C68.5478 108.107 66.1357 106.364 64.4119 104.545L61.5081 107.295ZM69.8383 113.274C73.1862 115.11 77.0085 117.047 81.3019 119.087L83.0181 115.473C78.7782 113.459 75.0271 111.557 71.7617 109.766L69.8383 113.274ZM81.2945 119.083C83.9214 120.344 86.7674 121.819 89.8338 123.511L91.7661 120.009C88.6459 118.287 85.7319 116.776 83.0255 115.477L81.2945 119.083ZM89.7886 123.485C92.7608 125.228 95.642 127.335 98.4313 129.815L101.089 126.825C98.118 124.185 95.0259 121.919 91.8114 120.035L89.7886 123.485ZM98.3738 129.762C100.964 132.252 103.123 135.256 104.841 138.794L108.439 137.046C106.531 133.117 104.102 129.721 101.146 126.878L98.3738 129.762ZM104.841 138.794C106.492 142.194 107.36 146.36 107.36 151.36H111.36C111.36 145.907 110.414 141.113 108.439 137.046L104.841 138.794ZM107.36 151.36C107.36 161.097 104.093 168.434 97.6961 173.65L100.224 176.75C107.694 170.659 111.36 162.103 111.36 151.36H107.36ZM97.682 173.662C91.2101 179.038 82.2729 181.84 70.64 181.84V185.84C82.9004 185.84 92.8432 182.882 100.238 176.738L97.682 173.662ZM70.64 181.84C64.8223 181.84 59.3391 181.165 54.1833 179.824L53.1767 183.696C58.6875 185.128 64.511 185.84 70.64 185.84V181.84ZM54.174 179.822C48.8519 178.465 43.301 176.53 37.5199 174.007L35.9201 177.673C41.8723 180.27 47.628 182.281 53.186 183.698L54.174 179.822ZM38.5671 176.607L46.4071 157.727L42.7129 156.193L34.8729 175.073L38.5671 176.607ZM43.8042 158.812C49.0807 160.965 53.8468 162.646 58.0971 163.845L59.1829 159.995C55.1131 158.847 50.4926 157.221 45.3158 155.108L43.8042 158.812ZM58.0971 163.845C62.4358 165.069 66.8853 165.68 71.44 165.68V161.68C67.248 161.68 63.1641 161.118 59.1829 159.995L58.0971 163.845ZM71.44 165.68C76.3125 165.68 80.3701 164.548 83.3124 161.989L80.6876 158.971C78.7233 160.679 75.7408 161.68 71.44 161.68V165.68ZM83.3123 161.989C86.2267 159.455 87.68 156.119 87.68 152.16H83.68C83.68 155.027 82.6799 157.238 80.6876 158.971L83.3123 161.989ZM87.68 152.16C87.68 147.377 85.4779 143.567 81.3265 140.881L79.1535 144.239C82.2554 146.246 83.68 148.837 83.68 152.16H87.68ZM81.3265 140.881C77.5915 138.464 72.1137 135.541 64.9419 132.115L63.218 135.725C70.3397 139.126 75.6352 141.963 79.1535 144.239L81.3265 140.881ZM64.9347 132.112C59.1532 129.379 54.3111 126.562 50.3864 123.67L48.0136 126.89C52.1956 129.972 57.2734 132.915 63.2252 135.728L64.9347 132.112ZM50.3664 123.655C46.4217 120.823 43.4324 117.52 41.3505 113.753L37.8495 115.687C40.2476 120.027 43.6583 123.763 48.0336 126.905L50.3664 123.655ZM41.3505 113.753C39.3148 110.069 38.24 105.411 38.24 99.68H34.24C34.24 105.896 35.4051 111.264 37.8495 115.687L41.3505 113.753Z" fill="#9C27B0"/>
<path d="M110.76 119.32C110.76 129.453 107.08 137.56 99.72 143.64C92.4667 149.613 82.12 152.6 68.68 152.6C56.6267 152.6 45.8533 150.307 36.36 145.72V123.16C41.8 125.507 47.4 127.693 53.16 129.72C59.0267 131.64 64.84 132.6 70.6 132.6C76.5733 132.6 80.7867 131.48 83.24 129.24C85.8 126.893 87.08 123.96 87.08 120.44C87.08 117.56 86.0667 115.107 84.04 113.08C82.12 111.053 79.5067 109.187 76.2 107.48C72.8933 105.667 69.1067 103.747 64.84 101.72C62.1733 100.44 59.2933 98.9467 56.2 97.24C53.1067 95.4267 50.12 93.24 47.24 90.68C44.4667 88.0133 42.1733 84.8133 40.36 81.08C38.5467 77.3467 37.64 72.8667 37.64 67.64C37.64 57.4 41.1067 49.4533 48.04 43.8C54.9733 38.04 64.4133 35.16 76.36 35.16C82.3333 35.16 87.9867 35.8533 93.32 37.24C98.76 38.6267 104.413 40.6 110.28 43.16L102.44 62.04C97.2133 59.9067 92.52 58.2533 88.36 57.08C84.2 55.9067 79.9333 55.32 75.56 55.32C70.9733 55.32 67.4533 56.3867 65 58.52C62.5467 60.6533 61.32 63.4267 61.32 66.84C61.32 70.8933 63.1333 74.0933 66.76 76.44C70.3867 78.7867 75.7733 81.6667 82.92 85.08C88.7867 87.8533 93.7467 90.7333 97.8 93.72C101.96 96.7067 105.16 100.227 107.4 104.28C109.64 108.333 110.76 113.347 110.76 119.32Z" fill="white"/>
<path d="M99.72 143.64L100.991 145.184L100.994 145.182L99.72 143.64ZM36.36 145.72H34.36V146.975L35.4899 147.521L36.36 145.72ZM36.36 123.16L37.1522 121.324L34.36 120.119V123.16H36.36ZM53.16 129.72L52.4962 131.607L52.517 131.614L52.5379 131.621L53.16 129.72ZM83.24 129.24L84.5885 130.717L84.5914 130.714L83.24 129.24ZM84.04 113.08L82.5881 114.455L82.6067 114.475L82.6258 114.494L84.04 113.08ZM76.2 107.48L75.2383 109.234L75.2604 109.246L75.2827 109.257L76.2 107.48ZM64.84 101.72L63.9745 103.523L63.9819 103.527L64.84 101.72ZM56.2 97.24L55.1886 98.9654L55.211 98.9786L55.2338 98.9911L56.2 97.24ZM47.24 90.68L45.8538 92.1217L45.882 92.1488L45.9113 92.1748L47.24 90.68ZM40.36 81.08L38.561 81.9538H38.561L40.36 81.08ZM48.04 43.8L49.3039 45.35L49.311 45.3442L49.318 45.3384L48.04 43.8ZM93.32 37.24L92.8167 39.1757L92.826 39.178L93.32 37.24ZM110.28 43.16L112.127 43.927L112.88 42.1126L111.08 41.3269L110.28 43.16ZM102.44 62.04L101.684 63.8917L103.525 64.6429L104.287 62.807L102.44 62.04ZM88.36 57.08L87.8171 59.0049L87.8171 59.0049L88.36 57.08ZM65 58.52L66.3124 60.0292V60.0292L65 58.52ZM66.76 76.44L65.6735 78.1191L66.76 76.44ZM82.92 85.08L82.058 86.8847L82.0652 86.8881L82.92 85.08ZM97.8 93.72L96.6136 95.3301L96.6235 95.3374L96.6336 95.3446L97.8 93.72ZM107.4 104.28L105.65 105.247L107.4 104.28ZM108.76 119.32C108.76 128.899 105.315 136.424 98.4462 142.098L100.994 145.182C108.845 138.696 112.76 130.008 112.76 119.32H108.76ZM98.4486 142.096C91.6797 147.671 81.8516 150.6 68.68 150.6V154.6C82.3884 154.6 93.2536 151.556 100.991 145.184L98.4486 142.096ZM68.68 150.6C56.8847 150.6 46.4157 148.357 37.2301 143.919L35.4899 147.521C45.291 152.256 56.3686 154.6 68.68 154.6V150.6ZM38.36 145.72V123.16H34.36V145.72H38.36ZM35.5678 124.996C41.0513 127.362 46.6941 129.565 52.4962 131.607L53.8238 127.833C48.1058 125.821 42.5487 123.651 37.1522 121.324L35.5678 124.996ZM52.5379 131.621C58.591 133.602 64.6141 134.6 70.6 134.6V130.6C65.0659 130.6 59.4623 129.678 53.7821 127.819L52.5379 131.621ZM70.6 134.6C76.7132 134.6 81.5675 133.475 84.5885 130.717L81.8915 127.763C80.0059 129.485 76.4335 130.6 70.6 130.6V134.6ZM84.5914 130.714C87.5711 127.983 89.08 124.512 89.08 120.44H85.08C85.08 123.408 84.0289 125.804 81.8885 127.766L84.5914 130.714ZM89.08 120.44C89.08 117.032 87.858 114.07 85.4542 111.666L82.6258 114.494C84.2753 116.144 85.08 118.088 85.08 120.44H89.08ZM85.4919 111.705C83.3757 109.471 80.5611 107.48 77.1173 105.703L75.2827 109.257C78.4522 110.893 80.8643 112.636 82.5881 114.455L85.4919 111.705ZM77.1617 105.726C73.8138 103.89 69.9915 101.953 65.6981 99.9134L63.9819 103.527C68.2218 105.541 71.9729 107.443 75.2383 109.234L77.1617 105.726ZM65.7055 99.9169C63.0786 98.6561 60.2325 97.1806 57.1661 95.4888L55.2338 98.9911C58.3541 100.713 61.2681 102.224 63.9745 103.523L65.7055 99.9169ZM57.2114 95.5146C54.2392 93.7723 51.358 91.6645 48.5687 89.1852L45.9113 92.1748C48.882 94.8155 51.9741 97.0811 55.1886 98.9654L57.2114 95.5146ZM48.6262 89.2383C46.0358 86.7476 43.8774 83.7441 42.159 80.2062L38.561 81.9538C40.4692 85.8825 42.8975 89.2791 45.8538 92.1217L48.6262 89.2383ZM42.159 80.2062C40.5077 76.8064 39.64 72.6403 39.64 67.64H35.64C35.64 73.093 36.5856 77.8869 38.561 81.9538L42.159 80.2062ZM39.64 67.64C39.64 57.9033 42.9071 50.5658 49.3039 45.35L46.7761 42.25C39.3062 48.3408 35.64 56.8966 35.64 67.64H39.64ZM49.318 45.3384C55.7899 39.9617 64.727 37.16 76.36 37.16V33.16C64.0996 33.16 54.1568 36.1182 46.762 42.2616L49.318 45.3384ZM76.36 37.16C82.1777 37.16 87.6609 37.8351 92.8167 39.1756L93.8233 35.3044C88.3125 33.8715 82.489 33.16 76.36 33.16V37.16ZM92.826 39.178C98.148 40.5346 103.699 42.4704 109.48 44.9931L111.08 41.3269C105.128 38.7296 99.3719 36.7187 93.814 35.302L92.826 39.178ZM108.433 42.393L100.593 61.273L104.287 62.807L112.127 43.927L108.433 42.393ZM103.196 60.1883C97.9193 58.0346 93.1531 56.3539 88.9029 55.1551L87.8171 59.0049C91.8868 60.1528 96.5073 61.7787 101.684 63.8917L103.196 60.1883ZM88.9029 55.1551C84.5642 53.9313 80.1147 53.32 75.56 53.32V57.32C79.752 57.32 83.8358 57.882 87.8171 59.0049L88.9029 55.1551ZM75.56 53.32C70.6875 53.32 66.6299 54.4523 63.6876 57.0108L66.3124 60.0292C68.2767 58.3211 71.2592 57.32 75.56 57.32V53.32ZM63.6876 57.0108C60.7733 59.545 59.32 62.8807 59.32 66.84H63.32C63.32 63.9727 64.3201 61.7616 66.3124 60.0292L63.6876 57.0108ZM59.32 66.84C59.32 71.6234 61.522 75.4329 65.6735 78.1191L67.8465 74.7609C64.7446 72.7538 63.32 70.1632 63.32 66.84H59.32ZM65.6735 78.1191C69.4085 80.5359 74.8863 83.4594 82.058 86.8847L83.782 83.2753C76.6603 79.8739 71.3648 77.0374 67.8465 74.7609L65.6735 78.1191ZM82.0652 86.8881C87.8468 89.6212 92.6889 92.4382 96.6136 95.3301L98.9864 92.1099C94.8044 89.0284 89.7266 86.0854 83.7748 83.2719L82.0652 86.8881ZM96.6336 95.3446C100.578 98.1768 103.568 101.48 105.65 105.247L109.15 103.313C106.752 98.9732 103.342 95.2366 98.9664 92.0954L96.6336 95.3446ZM105.65 105.247C107.685 108.931 108.76 113.589 108.76 119.32H112.76C112.76 113.104 111.595 107.736 109.15 103.313L105.65 105.247Z" fill="#9C27B0"/>
<mask id="mask0" mask-type="alpha" maskUnits="userSpaceOnUse" x="27" y="57" width="91" height="62">
<path d="M117.56 104.5L27 118.5V60.5L116 57L117.56 104.5Z" fill="#C4C4C4"/>
</mask>
<g mask="url(#mask0)">
<path d="M36.24 99.68C36.24 89.5467 39.92 81.44 47.28 75.36C54.5333 69.3867 64.88 66.4 78.32 66.4C90.3733 66.4 101.147 68.6933 110.64 73.28V95.84C105.2 93.4933 99.6 91.3067 93.84 89.28C87.9733 87.36 82.16 86.4 76.4 86.4C70.4267 86.4 66.2133 87.52 63.76 89.76C61.2 92.1067 59.92 95.04 59.92 98.56C59.92 101.44 60.9333 103.893 62.96 105.92C64.88 107.947 67.4933 109.813 70.8 111.52C74.1067 113.333 77.8933 115.253 82.16 117.28C84.8267 118.56 87.7067 120.053 90.8 121.76C93.8933 123.573 96.88 125.76 99.76 128.32C102.533 130.987 104.827 134.187 106.64 137.92C108.453 141.653 109.36 146.133 109.36 151.36C109.36 161.6 105.893 169.547 98.96 175.2C92.0267 180.96 82.5867 183.84 70.64 183.84C64.6667 183.84 59.0133 183.147 53.68 181.76C48.24 180.373 42.5867 178.4 36.72 175.84L44.56 156.96C49.7867 159.093 54.48 160.747 58.64 161.92C62.8 163.093 67.0667 163.68 71.44 163.68C76.0267 163.68 79.5467 162.613 82 160.48C84.4533 158.347 85.68 155.573 85.68 152.16C85.68 148.107 83.8667 144.907 80.24 142.56C76.6133 140.213 71.2267 137.333 64.08 133.92C58.2133 131.147 53.2533 128.267 49.2 125.28C45.04 122.293 41.84 118.773 39.6 114.72C37.36 110.667 36.24 105.653 36.24 99.68Z" fill="white"/>
<path d="M47.28 75.36L46.0086 73.8161L46.0062 73.8181L47.28 75.36ZM110.64 73.28H112.64V72.0251L111.51 71.4792L110.64 73.28ZM110.64 95.84L109.848 97.6764L112.64 98.8809V95.84H110.64ZM93.84 89.28L94.5038 87.3934L94.483 87.3861L94.4621 87.3792L93.84 89.28ZM63.76 89.76L62.4114 88.283L62.4085 88.2857L63.76 89.76ZM62.96 105.92L64.4119 104.545L64.3933 104.525L64.3742 104.506L62.96 105.92ZM70.8 111.52L71.7617 109.766L71.7396 109.754L71.7173 109.743L70.8 111.52ZM82.16 117.28L83.0255 115.477L83.0181 115.473L82.16 117.28ZM90.8 121.76L91.8114 120.035L91.789 120.021L91.7661 120.009L90.8 121.76ZM99.76 128.32L101.146 126.878L101.118 126.851L101.089 126.825L99.76 128.32ZM106.64 137.92L108.439 137.046H108.439L106.64 137.92ZM98.96 175.2L97.6961 173.65L97.689 173.656L97.682 173.662L98.96 175.2ZM53.68 181.76L54.1833 179.824L54.174 179.822L53.68 181.76ZM36.72 175.84L34.8729 175.073L34.1195 176.887L35.9201 177.673L36.72 175.84ZM44.56 156.96L45.3158 155.108L43.4753 154.357L42.7129 156.193L44.56 156.96ZM58.64 161.92L59.1829 159.995L59.1829 159.995L58.64 161.92ZM82 160.48L80.6876 158.971V158.971L82 160.48ZM80.24 142.56L81.3265 140.881L80.24 142.56ZM64.08 133.92L64.942 132.115L64.9347 132.112L64.08 133.92ZM49.2 125.28L50.3864 123.67L50.3764 123.663L50.3664 123.655L49.2 125.28ZM39.6 114.72L41.3505 113.753L39.6 114.72ZM38.24 99.68C38.24 90.1012 41.6851 82.576 48.5537 76.9019L46.0062 73.8181C38.1549 80.304 34.24 88.9921 34.24 99.68H38.24ZM48.5514 76.9039C55.3203 71.3295 65.1484 68.4 78.32 68.4V64.4C64.6116 64.4 53.7464 67.4438 46.0086 73.8161L48.5514 76.9039ZM78.32 68.4C90.1152 68.4 100.584 70.6428 109.77 75.0808L111.51 71.4792C101.709 66.7438 90.6314 64.4 78.32 64.4V68.4ZM108.64 73.28V95.84H112.64V73.28H108.64ZM111.432 94.0036C105.949 91.6382 100.306 89.4348 94.5038 87.3934L93.1762 91.1666C98.8941 93.1785 104.451 95.3485 109.848 97.6764L111.432 94.0036ZM94.4621 87.3792C88.409 85.3982 82.3859 84.4 76.4 84.4V88.4C81.9341 88.4 87.5377 89.3218 93.2179 91.1808L94.4621 87.3792ZM76.4 84.4C70.2868 84.4 65.4325 85.5247 62.4114 88.283L65.1085 91.237C66.9941 89.5153 70.5665 88.4 76.4 88.4V84.4ZM62.4085 88.2857C59.4289 91.017 57.92 94.4881 57.92 98.56H61.92C61.92 95.5919 62.9711 93.1963 65.1114 91.2343L62.4085 88.2857ZM57.92 98.56C57.92 101.968 59.142 104.93 61.5458 107.334L64.3742 104.506C62.7246 102.856 61.92 100.912 61.92 98.56H57.92ZM61.5081 107.295C63.6243 109.529 66.4388 111.52 69.8827 113.297L71.7173 109.743C68.5478 108.107 66.1357 106.364 64.4119 104.545L61.5081 107.295ZM69.8383 113.274C73.1862 115.11 77.0085 117.047 81.3019 119.087L83.0181 115.473C78.7782 113.459 75.0271 111.557 71.7617 109.766L69.8383 113.274ZM81.2945 119.083C83.9214 120.344 86.7674 121.819 89.8338 123.511L91.7661 120.009C88.6459 118.287 85.7319 116.776 83.0255 115.477L81.2945 119.083ZM89.7886 123.485C92.7608 125.228 95.642 127.335 98.4313 129.815L101.089 126.825C98.118 124.185 95.0259 121.919 91.8114 120.035L89.7886 123.485ZM98.3738 129.762C100.964 132.252 103.123 135.256 104.841 138.794L108.439 137.046C106.531 133.117 104.102 129.721 101.146 126.878L98.3738 129.762ZM104.841 138.794C106.492 142.194 107.36 146.36 107.36 151.36H111.36C111.36 145.907 110.414 141.113 108.439 137.046L104.841 138.794ZM107.36 151.36C107.36 161.097 104.093 168.434 97.6961 173.65L100.224 176.75C107.694 170.659 111.36 162.103 111.36 151.36H107.36ZM97.682 173.662C91.2101 179.038 82.2729 181.84 70.64 181.84V185.84C82.9004 185.84 92.8432 182.882 100.238 176.738L97.682 173.662ZM70.64 181.84C64.8223 181.84 59.3391 181.165 54.1833 179.824L53.1767 183.696C58.6875 185.128 64.511 185.84 70.64 185.84V181.84ZM54.174 179.822C48.8519 178.465 43.301 176.53 37.5199 174.007L35.9201 177.673C41.8723 180.27 47.628 182.281 53.186 183.698L54.174 179.822ZM38.5671 176.607L46.4071 157.727L42.7129 156.193L34.8729 175.073L38.5671 176.607ZM43.8042 158.812C49.0807 160.965 53.8468 162.646 58.0971 163.845L59.1829 159.995C55.1131 158.847 50.4926 157.221 45.3158 155.108L43.8042 158.812ZM58.0971 163.845C62.4358 165.069 66.8853 165.68 71.44 165.68V161.68C67.248 161.68 63.1641 161.118 59.1829 159.995L58.0971 163.845ZM71.44 165.68C76.3125 165.68 80.3701 164.548 83.3124 161.989L80.6876 158.971C78.7233 160.679 75.7408 161.68 71.44 161.68V165.68ZM83.3123 161.989C86.2267 159.455 87.68 156.119 87.68 152.16H83.68C83.68 155.027 82.6799 157.238 80.6876 158.971L83.3123 161.989ZM87.68 152.16C87.68 147.377 85.4779 143.567 81.3265 140.881L79.1535 144.239C82.2554 146.246 83.68 148.837 83.68 152.16H87.68ZM81.3265 140.881C77.5915 138.464 72.1137 135.541 64.9419 132.115L63.218 135.725C70.3397 139.126 75.6352 141.963 79.1535 144.239L81.3265 140.881ZM64.9347 132.112C59.1532 129.379 54.3111 126.562 50.3864 123.67L48.0136 126.89C52.1956 129.972 57.2734 132.915 63.2252 135.728L64.9347 132.112ZM50.3664 123.655C46.4217 120.823 43.4324 117.52 41.3505 113.753L37.8495 115.687C40.2476 120.027 43.6583 123.763 48.0336 126.905L50.3664 123.655ZM41.3505 113.753C39.3148 110.069 38.24 105.411 38.24 99.68H34.24C34.24 105.896 35.4051 111.264 37.8495 115.687L41.3505 113.753Z" fill="#9C27B0"/>
</g>
<path d="M184.46 73.046C185.02 73.046 185.51 73.242 185.93 73.634C186.378 73.998 186.602 74.586 186.602 75.398C186.602 76.182 186.378 76.77 185.93 77.162C185.51 77.554 185.02 77.75 184.46 77.75C183.844 77.75 183.326 77.554 182.906 77.162C182.486 76.77 182.276 76.182 182.276 75.398C182.276 74.586 182.486 73.998 182.906 73.634C183.326 73.242 183.844 73.046 184.46 73.046ZM186.266 81.488V104H182.57V81.488H186.266Z" fill="white"/>
<path d="M166.224 88.754C166.224 89.202 166.196 89.79 166.14 90.518C166.112 91.246 166.084 91.876 166.056 92.408H166.224C166.392 92.184 166.644 91.862 166.98 91.442C167.316 91.022 167.652 90.602 167.988 90.182C168.352 89.734 168.66 89.37 168.912 89.09L176.094 81.488H180.42L171.306 91.106L181.05 104H176.598L168.786 93.5L166.224 95.726V104H162.57V72.08H166.224V88.754Z" fill="white"/>
<path d="M160.386 81.488V104H157.362L156.816 101.018H156.648C155.92 102.194 154.912 103.062 153.624 103.622C152.336 104.154 150.964 104.42 149.508 104.42C146.792 104.42 144.748 103.776 143.376 102.488C142.004 101.172 141.318 99.086 141.318 96.23V81.488H145.056V95.978C145.056 99.562 146.722 101.354 150.054 101.354C152.546 101.354 154.268 100.654 155.22 99.254C156.2 97.854 156.69 95.838 156.69 93.206V81.488H160.386Z" fill="white"/>
<path d="M123.266 81.446C123.266 82.566 123.196 83.616 123.056 84.596H123.308C124.036 83.448 125.016 82.58 126.248 81.992C127.508 81.404 128.866 81.11 130.322 81.11C133.066 81.11 135.124 81.768 136.496 83.084C137.868 84.372 138.554 86.458 138.554 89.342V104H134.9V89.594C134.9 85.982 133.22 84.176 129.86 84.176C127.34 84.176 125.604 84.89 124.652 86.318C123.728 87.718 123.266 89.734 123.266 92.366V104H119.57V72.08H123.266V81.446Z" fill="white"/>
<path d="M199.142 138.702C199.142 142.426 198.19 145.31 196.286 147.354C194.41 149.398 191.862 150.42 188.642 150.42C186.654 150.42 184.876 149.972 183.308 149.076C181.768 148.152 180.55 146.822 179.654 145.086C178.758 143.322 178.31 141.194 178.31 138.702C178.31 134.978 179.248 132.108 181.124 130.092C183 128.076 185.548 127.068 188.768 127.068C190.812 127.068 192.604 127.53 194.144 128.454C195.712 129.35 196.93 130.666 197.798 132.402C198.694 134.11 199.142 136.21 199.142 138.702ZM182.132 138.702C182.132 141.362 182.65 143.476 183.686 145.044C184.75 146.584 186.43 147.354 188.726 147.354C190.994 147.354 192.66 146.584 193.724 145.044C194.788 143.476 195.32 141.362 195.32 138.702C195.32 136.042 194.788 133.956 193.724 132.444C192.66 130.932 190.98 130.176 188.684 130.176C186.388 130.176 184.722 130.932 183.686 132.444C182.65 133.956 182.132 136.042 182.132 138.702Z" fill="white"/>
<path d="M166.224 134.754C166.224 135.202 166.196 135.79 166.14 136.518C166.112 137.246 166.084 137.876 166.056 138.408H166.224C166.392 138.184 166.644 137.862 166.98 137.442C167.316 137.022 167.652 136.602 167.988 136.182C168.352 135.734 168.66 135.37 168.912 135.09L176.094 127.488H180.42L171.306 137.106L181.05 150H176.598L168.786 139.5L166.224 141.726V150H162.57V118.08H166.224V134.754Z" fill="white"/>
<path d="M161.142 138.702C161.142 142.426 160.19 145.31 158.286 147.354C156.41 149.398 153.862 150.42 150.642 150.42C148.654 150.42 146.876 149.972 145.308 149.076C143.768 148.152 142.55 146.822 141.654 145.086C140.758 143.322 140.31 141.194 140.31 138.702C140.31 134.978 141.248 132.108 143.124 130.092C145 128.076 147.548 127.068 150.768 127.068C152.812 127.068 154.604 127.53 156.144 128.454C157.712 129.35 158.93 130.666 159.798 132.402C160.694 134.11 161.142 136.21 161.142 138.702ZM144.132 138.702C144.132 141.362 144.65 143.476 145.686 145.044C146.75 146.584 148.43 147.354 150.726 147.354C152.994 147.354 154.66 146.584 155.724 145.044C156.788 143.476 157.32 141.362 157.32 138.702C157.32 136.042 156.788 133.956 155.724 132.444C154.66 130.932 152.98 130.176 150.684 130.176C148.388 130.176 146.722 130.932 145.686 132.444C144.65 133.956 144.132 136.042 144.132 138.702Z" fill="white"/>
<path d="M123.266 127.446C123.266 128.566 123.196 129.616 123.056 130.596H123.308C124.036 129.448 125.016 128.58 126.248 127.992C127.508 127.404 128.866 127.11 130.322 127.11C133.066 127.11 135.124 127.768 136.496 129.084C137.868 130.372 138.554 132.458 138.554 135.342V150H134.9V135.594C134.9 131.982 133.22 130.176 129.86 130.176C127.34 130.176 125.604 130.89 124.652 132.318C123.728 133.718 123.266 135.734 123.266 138.366V150H119.57V118.08H123.266V127.446Z" fill="white"/>
</svg>
