<svg width="1280" height="720" viewBox="0 0 1280 720" fill="none" xmlns="http://www.w3.org/2000/svg">
<g id="Frame 2">
<g id="Group-rect">
<rect id="base" width="1280" height="720" fill="#9C27B0"/>
<g id="moji">
<g id="S-low">
<path d="M583.24 349.68C583.24 339.547 586.92 331.44 594.28 325.36C601.533 319.387 611.88 316.4 625.32 316.4C637.373 316.4 648.147 318.693 657.64 323.28V345.84C652.2 343.493 646.6 341.307 640.84 339.28C634.973 337.36 629.16 336.4 623.4 336.4C617.427 336.4 613.213 337.52 610.76 339.76C608.2 342.107 606.92 345.04 606.92 348.56C606.92 351.44 607.933 353.893 609.96 355.92C611.88 357.947 614.493 359.813 617.8 361.52C621.107 363.333 624.893 365.253 629.16 367.28C631.827 368.56 634.707 370.053 637.8 371.76C640.893 373.573 643.88 375.76 646.76 378.32C649.533 380.987 651.827 384.187 653.64 387.92C655.453 391.653 656.36 396.133 656.36 401.36C656.36 411.6 652.893 419.547 645.96 425.2C639.027 430.96 629.587 433.84 617.64 433.84C611.667 433.84 606.013 433.147 600.68 431.76C595.24 430.373 589.587 428.4 583.72 425.84L591.56 406.96C596.787 409.093 601.48 410.747 605.64 411.92C609.8 413.093 614.067 413.68 618.44 413.68C623.027 413.68 626.547 412.613 629 410.48C631.453 408.347 632.68 405.573 632.68 402.16C632.68 398.107 630.867 394.907 627.24 392.56C623.613 390.213 618.227 387.333 611.08 383.92C605.213 381.147 600.253 378.267 596.2 375.28C592.04 372.293 588.84 368.773 586.6 364.72C584.36 360.667 583.24 355.653 583.24 349.68Z" fill="white"/>
<path d="M594.28 325.36L593.009 323.816L593.006 323.818L594.28 325.36ZM657.64 323.28H659.64V322.025L658.51 321.479L657.64 323.28ZM657.64 345.84L656.848 347.676L659.64 348.881V345.84H657.64ZM640.84 339.28L641.504 337.393L641.483 337.386L641.462 337.379L640.84 339.28ZM610.76 339.76L609.411 338.283L609.409 338.286L610.76 339.76ZM609.96 355.92L611.412 354.545L611.393 354.525L611.374 354.506L609.96 355.92ZM617.8 361.52L618.762 359.766L618.74 359.754L618.717 359.743L617.8 361.52ZM629.16 367.28L630.025 365.477L630.018 365.473L629.16 367.28ZM637.8 371.76L638.811 370.035L638.789 370.021L638.766 370.009L637.8 371.76ZM646.76 378.32L648.146 376.878L648.118 376.851L648.089 376.825L646.76 378.32ZM653.64 387.92L655.439 387.046H655.439L653.64 387.92ZM645.96 425.2L644.696 423.65L644.689 423.656L644.682 423.662L645.96 425.2ZM600.68 431.76L601.183 429.824L601.174 429.822L600.68 431.76ZM583.72 425.84L581.873 425.073L581.119 426.887L582.92 427.673L583.72 425.84ZM591.56 406.96L592.316 405.108L590.475 404.357L589.713 406.193L591.56 406.96ZM605.64 411.92L606.183 409.995L606.183 409.995L605.64 411.92ZM629 410.48L627.688 408.971V408.971L629 410.48ZM627.24 392.56L628.326 390.881L627.24 392.56ZM611.08 383.92L611.942 382.115L611.935 382.112L611.08 383.92ZM596.2 375.28L597.386 373.67L597.376 373.663L597.366 373.655L596.2 375.28ZM586.6 364.72L588.35 363.753L586.6 364.72ZM585.24 349.68C585.24 340.101 588.685 332.576 595.554 326.902L593.006 323.818C585.155 330.304 581.24 338.992 581.24 349.68H585.24ZM595.551 326.904C602.32 321.329 612.148 318.4 625.32 318.4V314.4C611.612 314.4 600.746 317.444 593.009 323.816L595.551 326.904ZM625.32 318.4C637.115 318.4 647.584 320.643 656.77 325.081L658.51 321.479C648.709 316.744 637.631 314.4 625.32 314.4V318.4ZM655.64 323.28V345.84H659.64V323.28H655.64ZM658.432 344.004C652.949 341.638 647.306 339.435 641.504 337.393L640.176 341.167C645.894 343.179 651.451 345.349 656.848 347.676L658.432 344.004ZM641.462 337.379C635.409 335.398 629.386 334.4 623.4 334.4V338.4C628.934 338.4 634.538 339.322 640.218 341.181L641.462 337.379ZM623.4 334.4C617.287 334.4 612.433 335.525 609.411 338.283L612.109 341.237C613.994 339.515 617.566 338.4 623.4 338.4V334.4ZM609.409 338.286C606.429 341.017 604.92 344.488 604.92 348.56H608.92C608.92 345.592 609.971 343.196 612.111 341.234L609.409 338.286ZM604.92 348.56C604.92 351.968 606.142 354.93 608.546 357.334L611.374 354.506C609.725 352.856 608.92 350.912 608.92 348.56H604.92ZM608.508 357.295C610.624 359.529 613.439 361.52 616.883 363.297L618.717 359.743C615.548 358.107 613.136 356.364 611.412 354.545L608.508 357.295ZM616.838 363.274C620.186 365.11 624.008 367.047 628.302 369.087L630.018 365.473C625.778 363.459 622.027 361.557 618.762 359.766L616.838 363.274ZM628.295 369.083C630.921 370.344 633.767 371.819 636.834 373.511L638.766 370.009C635.646 368.287 632.732 366.776 630.025 365.477L628.295 369.083ZM636.789 373.485C639.761 375.228 642.642 377.335 645.431 379.815L648.089 376.825C645.118 374.185 642.026 371.919 638.811 370.035L636.789 373.485ZM645.374 379.762C647.964 382.252 650.123 385.256 651.841 388.794L655.439 387.046C653.531 383.117 651.102 379.721 648.146 376.878L645.374 379.762ZM651.841 388.794C653.492 392.194 654.36 396.36 654.36 401.36H658.36C658.36 395.907 657.414 391.113 655.439 387.046L651.841 388.794ZM654.36 401.36C654.36 411.097 651.093 418.434 644.696 423.65L647.224 426.75C654.694 420.659 658.36 412.103 658.36 401.36H654.36ZM644.682 423.662C638.21 429.038 629.273 431.84 617.64 431.84V435.84C629.9 435.84 639.843 432.882 647.238 426.738L644.682 423.662ZM617.64 431.84C611.822 431.84 606.339 431.165 601.183 429.824L600.177 433.696C605.688 435.128 611.511 435.84 617.64 435.84V431.84ZM601.174 429.822C595.852 428.465 590.301 426.53 584.52 424.007L582.92 427.673C588.872 430.27 594.628 432.281 600.186 433.698L601.174 429.822ZM585.567 426.607L593.407 407.727L589.713 406.193L581.873 425.073L585.567 426.607ZM590.804 408.812C596.081 410.965 600.847 412.646 605.097 413.845L606.183 409.995C602.113 408.847 597.493 407.221 592.316 405.108L590.804 408.812ZM605.097 413.845C609.436 415.069 613.885 415.68 618.44 415.68V411.68C614.248 411.68 610.164 411.118 606.183 409.995L605.097 413.845ZM618.44 415.68C623.313 415.68 627.37 414.548 630.312 411.989L627.688 408.971C625.723 410.679 622.741 411.68 618.44 411.68V415.68ZM630.312 411.989C633.227 409.455 634.68 406.119 634.68 402.16H630.68C630.68 405.027 629.68 407.238 627.688 408.971L630.312 411.989ZM634.68 402.16C634.68 397.377 632.478 393.567 628.326 390.881L626.153 394.239C629.255 396.246 630.68 398.837 630.68 402.16H634.68ZM628.326 390.881C624.591 388.464 619.114 385.541 611.942 382.115L610.218 385.725C617.34 389.126 622.635 391.963 626.153 394.239L628.326 390.881ZM611.935 382.112C606.153 379.379 601.311 376.562 597.386 373.67L595.014 376.89C599.196 379.972 604.273 382.915 610.225 385.728L611.935 382.112ZM597.366 373.655C593.422 370.823 590.432 367.52 588.35 363.753L584.85 365.687C587.248 370.027 590.658 373.763 595.034 376.905L597.366 373.655ZM588.35 363.753C586.315 360.069 585.24 355.411 585.24 349.68H581.24C581.24 355.896 582.405 361.264 584.85 365.687L588.35 363.753Z" fill="#9C27B0"/>
</g>
<g id="S-up">
<path d="M657.76 369.32C657.76 379.453 654.08 387.56 646.72 393.64C639.467 399.613 629.12 402.6 615.68 402.6C603.627 402.6 592.853 400.307 583.36 395.72V373.16C588.8 375.507 594.4 377.693 600.16 379.72C606.027 381.64 611.84 382.6 617.6 382.6C623.573 382.6 627.787 381.48 630.24 379.24C632.8 376.893 634.08 373.96 634.08 370.44C634.08 367.56 633.067 365.107 631.04 363.08C629.12 361.053 626.507 359.187 623.2 357.48C619.893 355.667 616.107 353.747 611.84 351.72C609.173 350.44 606.293 348.947 603.2 347.24C600.107 345.427 597.12 343.24 594.24 340.68C591.467 338.013 589.173 334.813 587.36 331.08C585.547 327.347 584.64 322.867 584.64 317.64C584.64 307.4 588.107 299.453 595.04 293.8C601.973 288.04 611.413 285.16 623.36 285.16C629.333 285.16 634.987 285.853 640.32 287.24C645.76 288.627 651.413 290.6 657.28 293.16L649.44 312.04C644.213 309.907 639.52 308.253 635.36 307.08C631.2 305.907 626.933 305.32 622.56 305.32C617.973 305.32 614.453 306.387 612 308.52C609.547 310.653 608.32 313.427 608.32 316.84C608.32 320.893 610.133 324.093 613.76 326.44C617.387 328.787 622.773 331.667 629.92 335.08C635.787 337.853 640.747 340.733 644.8 343.72C648.96 346.707 652.16 350.227 654.4 354.28C656.64 358.333 657.76 363.347 657.76 369.32Z" fill="white"/>
<path d="M646.72 393.64L647.991 395.184L647.994 395.182L646.72 393.64ZM583.36 395.72H581.36V396.975L582.49 397.521L583.36 395.72ZM583.36 373.16L584.152 371.324L581.36 370.119V373.16H583.36ZM600.16 379.72L599.496 381.607L599.517 381.614L599.538 381.621L600.16 379.72ZM630.24 379.24L631.589 380.717L631.591 380.714L630.24 379.24ZM631.04 363.08L629.588 364.455L629.607 364.475L629.626 364.494L631.04 363.08ZM623.2 357.48L622.238 359.234L622.26 359.246L622.283 359.257L623.2 357.48ZM611.84 351.72L610.975 353.523L610.982 353.527L611.84 351.72ZM603.2 347.24L602.189 348.965L602.211 348.979L602.234 348.991L603.2 347.24ZM594.24 340.68L592.854 342.122L592.882 342.149L592.911 342.175L594.24 340.68ZM587.36 331.08L585.561 331.954H585.561L587.36 331.08ZM595.04 293.8L596.304 295.35L596.311 295.344L596.318 295.338L595.04 293.8ZM640.32 287.24L639.817 289.176L639.826 289.178L640.32 287.24ZM657.28 293.16L659.127 293.927L659.881 292.113L658.08 291.327L657.28 293.16ZM649.44 312.04L648.684 313.892L650.525 314.643L651.287 312.807L649.44 312.04ZM635.36 307.08L634.817 309.005L634.817 309.005L635.36 307.08ZM612 308.52L613.312 310.029V310.029L612 308.52ZM613.76 326.44L612.674 328.119L613.76 326.44ZM629.92 335.08L629.058 336.885L629.065 336.888L629.92 335.08ZM644.8 343.72L643.614 345.33L643.624 345.337L643.634 345.345L644.8 343.72ZM654.4 354.28L652.65 355.247L654.4 354.28ZM655.76 369.32C655.76 378.899 652.315 386.424 645.446 392.098L647.994 395.182C655.845 388.696 659.76 380.008 659.76 369.32H655.76ZM645.449 392.096C638.68 397.671 628.852 400.6 615.68 400.6V404.6C629.388 404.6 640.254 401.556 647.991 395.184L645.449 392.096ZM615.68 400.6C603.885 400.6 593.416 398.357 584.23 393.919L582.49 397.521C592.291 402.256 603.369 404.6 615.68 404.6V400.6ZM585.36 395.72V373.16H581.36V395.72H585.36ZM582.568 374.996C588.051 377.362 593.694 379.565 599.496 381.607L600.824 377.833C595.106 375.821 589.549 373.651 584.152 371.324L582.568 374.996ZM599.538 381.621C605.591 383.602 611.614 384.6 617.6 384.6V380.6C612.066 380.6 606.462 379.678 600.782 377.819L599.538 381.621ZM617.6 384.6C623.713 384.6 628.567 383.475 631.589 380.717L628.891 377.763C627.006 379.485 623.434 380.6 617.6 380.6V384.6ZM631.591 380.714C634.571 377.983 636.08 374.512 636.08 370.44H632.08C632.08 373.408 631.029 375.804 628.889 377.766L631.591 380.714ZM636.08 370.44C636.08 367.032 634.858 364.07 632.454 361.666L629.626 364.494C631.275 366.144 632.08 368.088 632.08 370.44H636.08ZM632.492 361.705C630.376 359.471 627.561 357.48 624.117 355.703L622.283 359.257C625.452 360.893 627.864 362.636 629.588 364.455L632.492 361.705ZM624.162 355.726C620.814 353.89 616.992 351.953 612.698 349.913L610.982 353.527C615.222 355.541 618.973 357.443 622.238 359.234L624.162 355.726ZM612.705 349.917C610.079 348.656 607.233 347.181 604.166 345.489L602.234 348.991C605.354 350.713 608.268 352.224 610.975 353.523L612.705 349.917ZM604.211 345.515C601.239 343.772 598.358 341.665 595.569 339.185L592.911 342.175C595.882 344.815 598.974 347.081 602.189 348.965L604.211 345.515ZM595.626 339.238C593.036 336.748 590.877 333.744 589.159 330.206L585.561 331.954C587.469 335.883 589.898 339.279 592.854 342.122L595.626 339.238ZM589.159 330.206C587.508 326.806 586.64 322.64 586.64 317.64H582.64C582.64 323.093 583.586 327.887 585.561 331.954L589.159 330.206ZM586.64 317.64C586.64 307.903 589.907 300.566 596.304 295.35L593.776 292.25C586.306 298.341 582.64 306.897 582.64 317.64H586.64ZM596.318 295.338C602.79 289.962 611.727 287.16 623.36 287.16V283.16C611.1 283.16 601.157 286.118 593.762 292.262L596.318 295.338ZM623.36 287.16C629.178 287.16 634.661 287.835 639.817 289.176L640.823 285.304C635.312 283.872 629.489 283.16 623.36 283.16V287.16ZM639.826 289.178C645.148 290.535 650.699 292.47 656.48 294.993L658.08 291.327C652.128 288.73 646.372 286.719 640.814 285.302L639.826 289.178ZM655.433 292.393L647.593 311.273L651.287 312.807L659.127 293.927L655.433 292.393ZM650.196 310.188C644.919 308.035 640.153 306.354 635.903 305.155L634.817 309.005C638.887 310.153 643.507 311.779 648.684 313.892L650.196 310.188ZM635.903 305.155C631.564 303.931 627.115 303.32 622.56 303.32V307.32C626.752 307.32 630.836 307.882 634.817 309.005L635.903 305.155ZM622.56 303.32C617.687 303.32 613.63 304.452 610.688 307.011L613.312 310.029C615.277 308.321 618.259 307.32 622.56 307.32V303.32ZM610.688 307.011C607.773 309.545 606.32 312.881 606.32 316.84H610.32C610.32 313.973 611.32 311.762 613.312 310.029L610.688 307.011ZM606.32 316.84C606.32 321.623 608.522 325.433 612.674 328.119L614.847 324.761C611.745 322.754 610.32 320.163 610.32 316.84H606.32ZM612.674 328.119C616.409 330.536 621.886 333.459 629.058 336.885L630.782 333.275C623.66 329.874 618.365 327.037 614.847 324.761L612.674 328.119ZM629.065 336.888C634.847 339.621 639.689 342.438 643.614 345.33L645.986 342.11C641.804 339.028 636.727 336.085 630.775 333.272L629.065 336.888ZM643.634 345.345C647.578 348.177 650.568 351.48 652.65 355.247L656.15 353.313C653.752 348.973 650.342 345.237 645.966 342.095L643.634 345.345ZM652.65 355.247C654.685 358.931 655.76 363.589 655.76 369.32H659.76C659.76 363.104 658.595 357.736 656.15 353.313L652.65 355.247Z" fill="#9C27B0"/>
</g>
<g id="S-low2">
<mask id="mask0" mask-type="alpha" maskUnits="userSpaceOnUse" x="574" y="307" width="91" height="62">
<path id="Mask-area" d="M664.56 354.5L574 368.5V310.5L663 307L664.56 354.5Z" fill="#C4C4C4"/>
</mask>
<g mask="url(#mask0)">
<g id="S-low2_2">
<path d="M583.24 349.68C583.24 339.547 586.92 331.44 594.28 325.36C601.533 319.387 611.88 316.4 625.32 316.4C637.373 316.4 648.147 318.693 657.64 323.28V345.84C652.2 343.493 646.6 341.307 640.84 339.28C634.973 337.36 629.16 336.4 623.4 336.4C617.427 336.4 613.213 337.52 610.76 339.76C608.2 342.107 606.92 345.04 606.92 348.56C606.92 351.44 607.933 353.893 609.96 355.92C611.88 357.947 614.493 359.813 617.8 361.52C621.107 363.333 624.893 365.253 629.16 367.28C631.827 368.56 634.707 370.053 637.8 371.76C640.893 373.573 643.88 375.76 646.76 378.32C649.533 380.987 651.827 384.187 653.64 387.92C655.453 391.653 656.36 396.133 656.36 401.36C656.36 411.6 652.893 419.547 645.96 425.2C639.027 430.96 629.587 433.84 617.64 433.84C611.667 433.84 606.013 433.147 600.68 431.76C595.24 430.373 589.587 428.4 583.72 425.84L591.56 406.96C596.787 409.093 601.48 410.747 605.64 411.92C609.8 413.093 614.067 413.68 618.44 413.68C623.027 413.68 626.547 412.613 629 410.48C631.453 408.347 632.68 405.573 632.68 402.16C632.68 398.107 630.867 394.907 627.24 392.56C623.613 390.213 618.227 387.333 611.08 383.92C605.213 381.147 600.253 378.267 596.2 375.28C592.04 372.293 588.84 368.773 586.6 364.72C584.36 360.667 583.24 355.653 583.24 349.68Z" fill="white"/>
<path d="M594.28 325.36L593.009 323.816L593.006 323.818L594.28 325.36ZM657.64 323.28H659.64V322.025L658.51 321.479L657.64 323.28ZM657.64 345.84L656.848 347.676L659.64 348.881V345.84H657.64ZM640.84 339.28L641.504 337.393L641.483 337.386L641.462 337.379L640.84 339.28ZM610.76 339.76L609.411 338.283L609.409 338.286L610.76 339.76ZM609.96 355.92L611.412 354.545L611.393 354.525L611.374 354.506L609.96 355.92ZM617.8 361.52L618.762 359.766L618.74 359.754L618.717 359.743L617.8 361.52ZM629.16 367.28L630.025 365.477L630.018 365.473L629.16 367.28ZM637.8 371.76L638.811 370.035L638.789 370.021L638.766 370.009L637.8 371.76ZM646.76 378.32L648.146 376.878L648.118 376.851L648.089 376.825L646.76 378.32ZM653.64 387.92L655.439 387.046H655.439L653.64 387.92ZM645.96 425.2L644.696 423.65L644.689 423.656L644.682 423.662L645.96 425.2ZM600.68 431.76L601.183 429.824L601.174 429.822L600.68 431.76ZM583.72 425.84L581.873 425.073L581.119 426.887L582.92 427.673L583.72 425.84ZM591.56 406.96L592.316 405.108L590.475 404.357L589.713 406.193L591.56 406.96ZM605.64 411.92L606.183 409.995L606.183 409.995L605.64 411.92ZM629 410.48L627.688 408.971V408.971L629 410.48ZM627.24 392.56L628.326 390.881L627.24 392.56ZM611.08 383.92L611.942 382.115L611.935 382.112L611.08 383.92ZM596.2 375.28L597.386 373.67L597.376 373.663L597.366 373.655L596.2 375.28ZM586.6 364.72L588.35 363.753L586.6 364.72ZM585.24 349.68C585.24 340.101 588.685 332.576 595.554 326.902L593.006 323.818C585.155 330.304 581.24 338.992 581.24 349.68H585.24ZM595.551 326.904C602.32 321.329 612.148 318.4 625.32 318.4V314.4C611.612 314.4 600.746 317.444 593.009 323.816L595.551 326.904ZM625.32 318.4C637.115 318.4 647.584 320.643 656.77 325.081L658.51 321.479C648.709 316.744 637.631 314.4 625.32 314.4V318.4ZM655.64 323.28V345.84H659.64V323.28H655.64ZM658.432 344.004C652.949 341.638 647.306 339.435 641.504 337.393L640.176 341.167C645.894 343.179 651.451 345.349 656.848 347.676L658.432 344.004ZM641.462 337.379C635.409 335.398 629.386 334.4 623.4 334.4V338.4C628.934 338.4 634.538 339.322 640.218 341.181L641.462 337.379ZM623.4 334.4C617.287 334.4 612.433 335.525 609.411 338.283L612.109 341.237C613.994 339.515 617.566 338.4 623.4 338.4V334.4ZM609.409 338.286C606.429 341.017 604.92 344.488 604.92 348.56H608.92C608.92 345.592 609.971 343.196 612.111 341.234L609.409 338.286ZM604.92 348.56C604.92 351.968 606.142 354.93 608.546 357.334L611.374 354.506C609.725 352.856 608.92 350.912 608.92 348.56H604.92ZM608.508 357.295C610.624 359.529 613.439 361.52 616.883 363.297L618.717 359.743C615.548 358.107 613.136 356.364 611.412 354.545L608.508 357.295ZM616.838 363.274C620.186 365.11 624.008 367.047 628.302 369.087L630.018 365.473C625.778 363.459 622.027 361.557 618.762 359.766L616.838 363.274ZM628.295 369.083C630.921 370.344 633.767 371.819 636.834 373.511L638.766 370.009C635.646 368.287 632.732 366.776 630.025 365.477L628.295 369.083ZM636.789 373.485C639.761 375.228 642.642 377.335 645.431 379.815L648.089 376.825C645.118 374.185 642.026 371.919 638.811 370.035L636.789 373.485ZM645.374 379.762C647.964 382.252 650.123 385.256 651.841 388.794L655.439 387.046C653.531 383.117 651.102 379.721 648.146 376.878L645.374 379.762ZM651.841 388.794C653.492 392.194 654.36 396.36 654.36 401.36H658.36C658.36 395.907 657.414 391.113 655.439 387.046L651.841 388.794ZM654.36 401.36C654.36 411.097 651.093 418.434 644.696 423.65L647.224 426.75C654.694 420.659 658.36 412.103 658.36 401.36H654.36ZM644.682 423.662C638.21 429.038 629.273 431.84 617.64 431.84V435.84C629.9 435.84 639.843 432.882 647.238 426.738L644.682 423.662ZM617.64 431.84C611.822 431.84 606.339 431.165 601.183 429.824L600.177 433.696C605.688 435.128 611.511 435.84 617.64 435.84V431.84ZM601.174 429.822C595.852 428.465 590.301 426.53 584.52 424.007L582.92 427.673C588.872 430.27 594.628 432.281 600.186 433.698L601.174 429.822ZM585.567 426.607L593.407 407.727L589.713 406.193L581.873 425.073L585.567 426.607ZM590.804 408.812C596.081 410.965 600.847 412.646 605.097 413.845L606.183 409.995C602.113 408.847 597.493 407.221 592.316 405.108L590.804 408.812ZM605.097 413.845C609.436 415.069 613.885 415.68 618.44 415.68V411.68C614.248 411.68 610.164 411.118 606.183 409.995L605.097 413.845ZM618.44 415.68C623.313 415.68 627.37 414.548 630.312 411.989L627.688 408.971C625.723 410.679 622.741 411.68 618.44 411.68V415.68ZM630.312 411.989C633.227 409.455 634.68 406.119 634.68 402.16H630.68C630.68 405.027 629.68 407.238 627.688 408.971L630.312 411.989ZM634.68 402.16C634.68 397.377 632.478 393.567 628.326 390.881L626.153 394.239C629.255 396.246 630.68 398.837 630.68 402.16H634.68ZM628.326 390.881C624.591 388.464 619.114 385.541 611.942 382.115L610.218 385.725C617.34 389.126 622.635 391.963 626.153 394.239L628.326 390.881ZM611.935 382.112C606.153 379.379 601.311 376.562 597.386 373.67L595.014 376.89C599.196 379.972 604.273 382.915 610.225 385.728L611.935 382.112ZM597.366 373.655C593.422 370.823 590.432 367.52 588.35 363.753L584.85 365.687C587.248 370.027 590.658 373.763 595.034 376.905L597.366 373.655ZM588.35 363.753C586.315 360.069 585.24 355.411 585.24 349.68H581.24C581.24 355.896 582.405 361.264 584.85 365.687L588.35 363.753Z" fill="#9C27B0"/>
</g>
</g>
</g>
<g id="Group-huki">
<path id="i" d="M731.46 323.046C732.02 323.046 732.51 323.242 732.93 323.634C733.378 323.998 733.602 324.586 733.602 325.398C733.602 326.182 733.378 326.77 732.93 327.162C732.51 327.554 732.02 327.75 731.46 327.75C730.844 327.75 730.326 327.554 729.906 327.162C729.486 326.77 729.276 326.182 729.276 325.398C729.276 324.586 729.486 323.998 729.906 323.634C730.326 323.242 730.844 323.046 731.46 323.046ZM733.266 331.488V354H729.57V331.488H733.266Z" fill="white"/>
<path id="k" d="M713.224 338.754C713.224 339.202 713.196 339.79 713.14 340.518C713.112 341.246 713.084 341.876 713.056 342.408H713.224C713.392 342.184 713.644 341.862 713.98 341.442C714.316 341.022 714.652 340.602 714.988 340.182C715.352 339.734 715.66 339.37 715.912 339.09L723.094 331.488H727.42L718.306 341.106L728.05 354H723.598L715.786 343.5L713.224 345.726V354H709.57V322.08H713.224V338.754Z" fill="white"/>
<path id="u" d="M707.386 331.488V354H704.362L703.816 351.018H703.648C702.92 352.194 701.912 353.062 700.624 353.622C699.336 354.154 697.964 354.42 696.508 354.42C693.792 354.42 691.748 353.776 690.376 352.488C689.004 351.172 688.318 349.086 688.318 346.23V331.488H692.056V345.978C692.056 349.562 693.722 351.354 697.054 351.354C699.546 351.354 701.268 350.654 702.22 349.254C703.2 347.854 703.69 345.838 703.69 343.206V331.488H707.386Z" fill="white"/>
<path id="h" d="M670.266 331.446C670.266 332.566 670.196 333.616 670.056 334.596H670.308C671.036 333.448 672.016 332.58 673.248 331.992C674.508 331.404 675.866 331.11 677.322 331.11C680.066 331.11 682.124 331.768 683.496 333.084C684.868 334.372 685.554 336.458 685.554 339.342V354H681.9V339.594C681.9 335.982 680.22 334.176 676.86 334.176C674.34 334.176 672.604 334.89 671.652 336.318C670.728 337.718 670.266 339.734 670.266 342.366V354H666.57V322.08H670.266V331.446Z" fill="white"/>
</g>
<g id="Group-hoko">
<path id="o2" d="M746.142 388.702C746.142 392.426 745.19 395.31 743.286 397.354C741.41 399.398 738.862 400.42 735.642 400.42C733.654 400.42 731.876 399.972 730.308 399.076C728.768 398.152 727.55 396.822 726.654 395.086C725.758 393.322 725.31 391.194 725.31 388.702C725.31 384.978 726.248 382.108 728.124 380.092C730 378.076 732.548 377.068 735.768 377.068C737.812 377.068 739.604 377.53 741.144 378.454C742.712 379.35 743.93 380.666 744.798 382.402C745.694 384.11 746.142 386.21 746.142 388.702ZM729.132 388.702C729.132 391.362 729.65 393.476 730.686 395.044C731.75 396.584 733.43 397.354 735.726 397.354C737.994 397.354 739.66 396.584 740.724 395.044C741.788 393.476 742.32 391.362 742.32 388.702C742.32 386.042 741.788 383.956 740.724 382.444C739.66 380.932 737.98 380.176 735.684 380.176C733.388 380.176 731.722 380.932 730.686 382.444C729.65 383.956 729.132 386.042 729.132 388.702Z" fill="white"/>
<path id="k_2" d="M713.224 384.754C713.224 385.202 713.196 385.79 713.14 386.518C713.112 387.246 713.084 387.876 713.056 388.408H713.224C713.392 388.184 713.644 387.862 713.98 387.442C714.316 387.022 714.652 386.602 714.988 386.182C715.352 385.734 715.66 385.37 715.912 385.09L723.094 377.488H727.42L718.306 387.106L728.05 400H723.598L715.786 389.5L713.224 391.726V400H709.57V368.08H713.224V384.754Z" fill="white"/>
<path id="o1" d="M708.142 388.702C708.142 392.426 707.19 395.31 705.286 397.354C703.41 399.398 700.862 400.42 697.642 400.42C695.654 400.42 693.876 399.972 692.308 399.076C690.768 398.152 689.55 396.822 688.654 395.086C687.758 393.322 687.31 391.194 687.31 388.702C687.31 384.978 688.248 382.108 690.124 380.092C692 378.076 694.548 377.068 697.768 377.068C699.812 377.068 701.604 377.53 703.144 378.454C704.712 379.35 705.93 380.666 706.798 382.402C707.694 384.11 708.142 386.21 708.142 388.702ZM691.132 388.702C691.132 391.362 691.65 393.476 692.686 395.044C693.75 396.584 695.43 397.354 697.726 397.354C699.994 397.354 701.66 396.584 702.724 395.044C703.788 393.476 704.32 391.362 704.32 388.702C704.32 386.042 703.788 383.956 702.724 382.444C701.66 380.932 699.98 380.176 697.684 380.176C695.388 380.176 693.722 380.932 692.686 382.444C691.65 383.956 691.132 386.042 691.132 388.702Z" fill="white"/>
<path id="h_2" d="M670.266 377.446C670.266 378.566 670.196 379.616 670.056 380.596H670.308C671.036 379.448 672.016 378.58 673.248 377.992C674.508 377.404 675.866 377.11 677.322 377.11C680.066 377.11 682.124 377.768 683.496 379.084C684.868 380.372 685.554 382.458 685.554 385.342V400H681.9V385.594C681.9 381.982 680.22 380.176 676.86 380.176C674.34 380.176 672.604 380.89 671.652 382.318C670.728 383.718 670.266 385.734 670.266 388.366V400H666.57V368.08H670.266V377.446Z" fill="white"/>
</g>
</g>
</g>
</g>
</svg>
